<?xml version="1.0" encoding="UTF-8"?>
<svg width="135px" height="36px" viewBox="0 0 135 36" version="1.1" xmlns="http://www.w3.org/2000/svg" xmlns:xlink="http://www.w3.org/1999/xlink">
    <!-- Generator: Sketch 47 (45396) - http://www.bohemiancoding.com/sketch -->
    <title>Logo</title>
    <desc>Created with Sketch.</desc>
    <defs></defs>
    <g id="Page-1" stroke="none" stroke-width="1" fill="none" fill-rule="evenodd">
        <g id="German-Landing" transform="translate(-148.000000, -40.000000)">
            <g id="Hero" transform="translate(0.000000, -35.000000)">
                <g id="Logo" transform="translate(148.000000, 75.000000)">
                    <path d="M19.3338,25.8156 C19.3338,31.1513838 15.0030973,35.4791676 9.66925946,35.4791676 C4.3325027,35.4791676 -0.000145945946,31.1513838 -0.000145945946,25.8156 C-0.000145945946,20.4759243 4.3325027,16.1447351 9.66925946,16.1447351 C15.0030973,16.1447351 19.3338,20.4759243 19.3338,25.8156" id="Fill-1" fill="#DA1924"></path>
                    <path d="M35.6800378,9.6713027 C35.6800378,15.0124378 31.3478757,19.3392486 26.0111189,19.3392486 C20.6767946,19.3392486 16.3480378,15.0124378 16.3480378,9.6713027 C16.3480378,4.33162703 20.6767946,0.00822162162 26.0111189,0.00822162162 C31.3478757,0.00822162162 35.6800378,4.33162703 35.6800378,9.6713027" id="Fill-4" fill="#2585FF"></path>
                    <path d="M49.6853027,3.49326486 C49.6444378,3.27191351 49.5967622,3.16245405 49.3948703,3.16245405 C49.1929784,3.16245405 49.1316811,3.27191351 49.0835189,3.49326486 L47.7247622,9.63175135 L51.0406541,9.63175135 L49.6853027,3.49326486 Z M56.0281135,16.7325081 L52.9063297,16.7325081 C52.6869243,16.7325081 52.5098432,16.5539676 52.4675189,16.3321297 L51.6638432,12.6800757 L47.1049784,12.6800757 L46.3017892,16.3321297 C46.2594649,16.5539676 46.0818973,16.7325081 45.8556811,16.7325081 L42.7446,16.7325081 C42.5213027,16.7325081 42.3661135,16.5958054 42.3661135,16.3725081 C42.3661135,16.3520757 42.3870324,16.3097514 42.3870324,16.2635351 L45.7034108,2.46921081 C46.2132486,0.335481081 47.8590324,-0.000194594595 49.3948703,-0.000194594595 C50.9311946,-0.000194594595 52.555573,0.335481081 53.0654108,2.46921081 L56.3817892,16.2635351 C56.3817892,16.3097514 56.4027081,16.3520757 56.4027081,16.3725081 C56.4027081,16.5958054 56.2470324,16.7325081 56.0281135,16.7325081 L56.0281135,16.7325081 Z" id="Fill-6" fill="#002F5F"></path>
                    <path d="M65.9490811,7.03031351 C65.9490811,4.02723243 64.6598919,3.22598919 62.6536216,3.22598919 C62.0980541,3.22598919 61.3868108,3.24788108 61.0783784,3.27171892 L61.0783784,13.6616108 C61.3868108,13.6815568 62.0980541,13.7063676 62.6536216,13.7063676 C64.6598919,13.7063676 65.9490811,12.9022054 65.9490811,9.90058378 L65.9490811,7.03031351 Z M62.6536216,16.9303135 C60.8059459,16.9303135 58.8274054,16.7522595 57.9142703,16.5956108 C57.4949189,16.5299351 57.2701622,16.3319351 57.2701622,15.8191784 L57.2701622,1.11123243 C57.2701622,0.602854054 57.4949189,0.400475676 57.9142703,0.335286486 C58.8274054,0.178151351 60.8059459,9.72972973e-05 62.6536216,9.72972973e-05 C67.0811351,9.72972973e-05 69.75,2.33620541 69.75,7.03031351 L69.75,9.90058378 C69.75,14.5951784 67.0811351,16.9303135 62.6536216,16.9303135 L62.6536216,16.9303135 Z" id="Fill-9" fill="#002F5F"></path>
                    <path d="M85.684573,16.7324595 L82.7418162,16.7324595 C82.5452757,16.7324595 82.3934919,16.5300811 82.3934919,16.2853784 L82.3934919,7.00516216 C82.3934919,6.85045946 82.3210054,6.83197297 82.2791676,6.83197297 C82.2115459,6.83197297 82.1663027,6.87381081 82.0986811,6.98424324 L80.0997081,10.6552703 C79.9435459,10.9228378 79.7202486,11.0361892 79.4259243,11.0361892 L77.6487892,11.0361892 C77.3622486,11.0361892 77.1399243,10.9228378 76.9837622,10.6552703 L74.9808973,6.98424324 C74.9137622,6.87381081 74.8680324,6.83197297 74.8052757,6.83197297 C74.7614919,6.83197297 74.6919243,6.85045946 74.6919243,7.00516216 L74.6919243,16.2853784 C74.6919243,16.5300811 74.5381946,16.7324595 74.3367892,16.7324595 L71.3988973,16.7324595 C71.2193838,16.7324595 71.0243027,16.6662973 71.0243027,16.4172162 L71.0243027,0.956675676 C71.0243027,0.489162162 71.3531676,0.203108108 71.8236,0.203108108 L73.9159784,0.203108108 C74.3825189,0.203108108 74.6919243,0.424945946 74.8899243,0.800027027 L78.2958162,7.14332432 C78.3892216,7.31845946 78.4529514,7.43035135 78.5414919,7.43035135 C78.6305189,7.43035135 78.6971676,7.31845946 78.7857081,7.14332432 L82.1872216,0.800027027 C82.3934919,0.424945946 82.6999784,0.203108108 83.1704108,0.203108108 L85.2588973,0.203108108 C85.7264108,0.203108108 86.0630595,0.512027027 86.0630595,0.980027027 L86.0630595,16.4172162 C86.0630595,16.6662973 85.8611676,16.7324595 85.684573,16.7324595" id="Fill-11" fill="#002F5F"></path>
                    <path d="M91.4435514,16.7324595 L88.4618757,16.7324595 C88.2176595,16.7324595 88.0658757,16.5300811 88.0658757,16.2853784 L88.0658757,0.621 C88.0658757,0.380189189 88.2176595,0.203108108 88.4618757,0.203108108 L91.4435514,0.203108108 C91.6897135,0.203108108 91.8663081,0.380189189 91.8663081,0.621 L91.8663081,16.2853784 C91.8663081,16.5300811 91.6897135,16.7324595 91.4435514,16.7324595" id="Fill-13" fill="#002F5F"></path>
                    <path d="M102.303973,5.2055027 C102.303973,3.84917838 101.257054,3.22598919 99.387973,3.22598919 C99.0780811,3.22598919 97.9187838,3.27171892 97.6526757,3.29215135 L97.6526757,7.56496216 C97.8944595,7.58636757 98.9890541,7.61020541 99.2322973,7.61020541 C101.568892,7.61020541 102.303973,7.00501622 102.303973,5.49496216 L102.303973,5.2055027 Z M106.307757,16.7323135 L102.90673,16.7323135 C102.658622,16.7323135 102.570081,16.5085297 102.45673,16.2852324 L99.4789459,10.6551243 L99.2322973,10.6823676 C98.7647838,10.6823676 98.0749459,10.6312865 97.6526757,10.6312865 L97.6526757,16.2852324 C97.6526757,16.5299351 97.4512703,16.7323135 97.2104595,16.7323135 L94.3168378,16.7323135 C94.0716486,16.7323135 93.8702432,16.5299351 93.8702432,16.2852324 L93.8702432,1.35642162 C93.8702432,0.602854054 94.1864595,0.400475676 94.8719189,0.289556757 C95.895,0.131448649 97.785,9.72972973e-05 99.387973,9.72972973e-05 C103.168459,9.72972973e-05 106.081054,1.26885405 106.081054,5.2055027 L106.081054,5.49496216 C106.081054,7.85393514 104.839054,9.29782703 103.214189,9.94290811 L106.576297,16.2180973 C106.61473,16.3095568 106.639541,16.3961514 106.639541,16.4657189 C106.639541,16.6189622 106.551973,16.7323135 106.307757,16.7323135 L106.307757,16.7323135 Z" id="Fill-15" fill="#002F5F"></path>
                    <path d="M114.072762,3.49326486 C114.026059,3.27191351 113.983249,3.16245405 113.782816,3.16245405 C113.580438,3.16245405 113.513303,3.27191351 113.469519,3.49326486 L112.117086,9.63175135 L115.4286,9.63175135 L114.072762,3.49326486 Z M120.411195,16.7325081 L117.297681,16.7325081 C117.074384,16.7325081 116.900222,16.5539676 116.851086,16.3321297 L116.050816,12.6800757 L111.489032,12.6800757 L110.689249,16.3321297 C110.642546,16.5539676 110.470816,16.7325081 110.246546,16.7325081 L107.132546,16.7325081 C106.909249,16.7325081 106.753573,16.5958054 106.753573,16.3725081 C106.753573,16.3520757 106.774492,16.3097514 106.774492,16.2635351 L110.087951,2.46921081 C110.599735,0.335481081 112.246492,-0.000194594595 113.782816,-0.000194594595 C115.315735,-0.000194594595 116.939627,0.335481081 117.452384,2.46921081 L120.769735,16.2635351 C120.769735,16.3097514 120.791627,16.3520757 120.791627,16.3725081 C120.791627,16.5958054 120.634492,16.7325081 120.411195,16.7325081 L120.411195,16.7325081 Z" id="Fill-17" fill="#002F5F"></path>
                    <path d="M130.268432,16.6431405 C129.532865,16.7988162 127.819946,16.9301676 126.640703,16.9301676 C123.774811,16.9301676 121.215405,16.1960595 121.215405,12.1480054 L121.215405,0.646005405 C121.215405,0.40032973 121.414378,0.203302703 121.661027,0.203302703 L124.574108,0.203302703 C124.814432,0.203302703 125.016811,0.40032973 125.016811,0.646005405 L125.016811,12.1480054 C125.016811,13.3029243 125.398703,13.6614649 126.443189,13.6614649 L130.268432,13.6614649 C130.512649,13.6614649 130.715027,13.8589784 130.715027,14.1051405 L130.715027,16.1741676 C130.715027,16.465573 130.582216,16.5755189 130.268432,16.6431405" id="Fill-20" fill="#002F5F"></path>
                    <path d="M57.0505135,35.4812108 L54.117,35.4812108 C53.9112162,35.4812108 53.7555405,35.2817514 53.7555405,35.0365622 L53.7555405,25.7597514 C53.7555405,25.6055351 53.6918108,25.5792649 53.6421892,25.5792649 C53.5789459,25.5792649 53.5361351,25.6284 53.469,25.7417514 L51.4656486,29.4108324 C51.309973,29.6749946 51.0866757,29.7883459 50.7967297,29.7883459 L49.0181351,29.7883459 C48.7296486,29.7883459 48.5068378,29.6749946 48.3511622,29.4108324 L46.3478108,25.7417514 C46.2801892,25.6284 46.2364054,25.5792649 46.1712162,25.5792649 C46.1284054,25.5792649 46.0607838,25.6055351 46.0607838,25.7597514 L46.0607838,35.0365622 C46.0607838,35.2817514 45.9017027,35.4812108 45.7037027,35.4812108 L42.7658108,35.4812108 C42.5887297,35.4812108 42.3868378,35.4145622 42.3868378,35.169373 L42.3868378,19.7098054 C42.3868378,19.2452108 42.7195946,18.951373 43.191,18.951373 L45.279,18.951373 C45.7474865,18.951373 46.0607838,19.1736973 46.2592703,19.5536432 L49.6641892,25.8954811 C49.7527297,26.0686703 49.8193784,26.1839676 49.9084054,26.1839676 C49.9930541,26.1839676 50.0640811,26.0686703 50.1487297,25.8954811 L53.5536486,19.5536432 C53.7555405,19.1736973 54.0668919,18.951373 54.5339189,18.951373 L56.6258108,18.951373 C57.0967297,18.951373 57.4255946,19.2666162 57.4255946,19.7336432 L57.4255946,35.169373 C57.4255946,35.4145622 57.2241892,35.4812108 57.0505135,35.4812108" id="Fill-22" fill="#002F5F"></path>
                    <path d="M65.6155946,22.2458108 C65.5703514,22.0215405 65.5270541,21.9106216 65.3271081,21.9106216 C65.1276486,21.9106216 65.0605135,22.0215405 65.0138108,22.2458108 L63.6555405,28.3838108 L66.9704595,28.3838108 L65.6155946,22.2458108 Z M71.9584054,35.4811622 L68.840027,35.4811622 C68.6172162,35.4811622 68.4401351,35.3035946 68.3948919,35.0802973 L67.5907297,31.4350541 L63.0362432,31.4350541 L62.2320811,35.0802973 C62.1902432,35.3035946 62.0073243,35.4811622 61.785973,35.4811622 L58.6714865,35.4811622 C58.4520811,35.4811622 58.2983514,35.3493243 58.2983514,35.127 C58.2983514,35.1070541 58.3178108,35.0603514 58.3178108,35.0155946 L61.6307838,21.2232162 C62.144027,19.0870541 63.7927297,18.7542973 65.3271081,18.7542973 C66.8614865,18.7542973 68.4824595,19.0870541 68.9995946,21.2232162 L72.3120811,35.0155946 C72.3120811,35.0603514 72.333973,35.1070541 72.333973,35.127 C72.333973,35.3493243 72.1778108,35.4811622 71.9584054,35.4811622 L71.9584054,35.4811622 Z" id="Fill-24" fill="#002F5F"></path>
                    <path d="M81.6349622,23.9542054 C81.6349622,22.6008 80.5870703,21.9771243 78.7150703,21.9771243 C78.4071243,21.9771243 77.2488,22.0213946 76.9836649,22.0466919 L76.9836649,26.3156108 C77.2278811,26.3423676 78.3171243,26.3598811 78.5628,26.3598811 C80.9003676,26.3598811 81.6349622,25.7595568 81.6349622,24.2475568 L81.6349622,23.9542054 Z M85.6372865,35.4810162 L82.2299351,35.4810162 C81.9886378,35.4810162 81.9000973,35.2596649 81.7867459,35.0363676 L78.8065297,29.4111243 L78.5628,29.4310703 C78.0948,29.4310703 77.4093405,29.3833946 76.9836649,29.3833946 L76.9836649,35.0363676 C76.9836649,35.2815568 76.7851784,35.4810162 76.5419351,35.4810162 L73.6468541,35.4810162 C73.4016649,35.4810162 73.2041514,35.2815568 73.2041514,35.0363676 L73.2041514,20.1095027 C73.2041514,19.3549622 73.5120973,19.1550162 74.205827,19.0416649 C75.2259892,18.8859892 77.1189081,18.7546378 78.7150703,18.7546378 C82.5023676,18.7546378 85.4149622,20.0209622 85.4149622,23.9542054 L85.4149622,24.2475568 C85.4149622,26.6050703 84.1680973,28.0533405 82.5480973,28.6984216 L85.9068,34.9711784 C85.9486378,35.0602054 85.9744216,35.1516649 85.9744216,35.2134486 C85.9744216,35.3730162 85.8815027,35.4810162 85.6372865,35.4810162 L85.6372865,35.4810162 Z" id="Fill-26" fill="#002F5F"></path>
                    <path d="M100.053049,19.5102973 L94.7625081,27.0284595 L100.078832,35.0155946 C100.144995,35.1070541 100.165914,35.1921892 100.165914,35.2598108 C100.165914,35.3935946 100.053049,35.4811622 99.8555351,35.4811622 L96.0298054,35.4811622 C95.7602919,35.4811622 95.6508324,35.3493243 95.5369946,35.1693243 L91.0243459,27.8311622 L91.0243459,35.0365135 C91.0243459,35.2817027 90.8195351,35.4811622 90.5753189,35.4811622 L87.6646703,35.4811622 C87.4146162,35.4811622 87.2180757,35.2817027 87.2180757,35.0365135 L87.2180757,19.3745676 C87.2180757,19.1293784 87.4146162,18.9518108 87.6646703,18.9518108 L90.5753189,18.9518108 C90.8195351,18.9518108 91.0243459,19.1293784 91.0243459,19.3745676 L91.0243459,26.4524595 L95.9159676,19.2184054 C96.0298054,19.0418108 96.1611568,18.9518108 96.403427,18.9518108 L99.8098054,18.9518108 C100.053049,18.9518108 100.165914,19.0637027 100.165914,19.196027 C100.165914,19.2850541 100.124076,19.3969459 100.053049,19.5102973" id="Fill-28" fill="#002F5F"></path>
                    <path d="M109.652595,35.3937892 C108.869838,35.5051946 107.740703,35.6817892 105.337946,35.6817892 C102.464757,35.6817892 99.9296757,34.9491405 99.9296757,30.899627 L99.9296757,23.5128162 C99.9296757,19.4633027 102.485676,18.7544919 105.355946,18.7544919 C107.760649,18.7544919 108.869838,18.9301135 109.652595,19.0420054 C109.963459,19.0867622 110.094324,19.1962216 110.094324,19.4886 L110.094324,21.557627 C110.094324,21.7989243 109.893892,21.9969243 109.652595,21.9969243 L105.137027,21.9969243 C104.08573,21.9969243 103.711135,22.3574108 103.711135,23.5128162 L103.711135,25.5366 L109.471135,25.5366 C109.719243,25.5366 109.91773,25.7418973 109.91773,25.9812486 L109.91773,28.0969784 C109.91773,28.3392486 109.719243,28.5430865 109.471135,28.5430865 L103.711135,28.5430865 L103.711135,30.899627 C103.711135,32.0574649 104.08573,32.4140595 105.137027,32.4140595 L109.652595,32.4140595 C109.893892,32.4140595 110.094324,32.6135189 110.094324,32.8567622 L110.094324,34.9262757 C110.094324,35.2133027 109.963459,35.3490324 109.652595,35.3937892" id="Fill-30" fill="#002F5F"></path>
                    <path d="M122.525465,22.0880919 L118.921573,22.0880919 L118.921573,35.0364162 C118.921573,35.2816054 118.724059,35.4810649 118.475951,35.4810649 L115.563357,35.4810649 C115.319141,35.4810649 115.116762,35.2816054 115.116762,35.0364162 L115.116762,22.0880919 L111.489032,22.0880919 C111.24433,22.0880919 111.047303,21.9105243 111.047303,21.6667946 L111.047303,19.3744703 C111.047303,19.1292811 111.24433,18.9517135 111.489032,18.9517135 L122.525465,18.9517135 C122.7726,18.9517135 122.992005,19.1292811 122.992005,19.3744703 L122.992005,21.6667946 C122.992005,21.9105243 122.7726,22.0880919 122.525465,22.0880919" id="Fill-33" fill="#002F5F"></path>
                    <path d="M128.513432,35.6816919 C126.750892,35.6816919 125.437865,35.4812595 124.304351,35.1922865 C124.087378,35.1266108 123.862135,34.9899081 123.862135,34.7486108 L123.862135,32.5672054 C123.862135,32.2573135 124.038243,32.148827 124.262514,32.148827 L124.326243,32.148827 C125.240838,32.2363946 127.685919,32.4139622 128.55527,32.4139622 C130.091595,32.4139622 130.534784,31.9265027 130.534784,30.854773 C130.534784,30.2126108 130.222946,29.8540703 129.065595,29.1656919 L125.996351,27.3399081 C123.926351,26.1168811 123.374189,24.7123946 123.374189,23.0923946 C123.374189,20.6434216 124.750946,18.7543946 129.065595,18.7543946 C130.690459,18.7543946 132.938514,19.0195297 133.781108,19.2452595 C133.961108,19.2851514 134.116784,19.3965568 134.116784,19.6441784 L134.116784,21.890773 C134.116784,22.0882865 134.02727,22.2702324 133.740243,22.2702324 L133.694514,22.2702324 C133.072297,22.2264486 130.489054,22.0216378 128.977054,22.0216378 C127.712676,22.0216378 127.243216,22.3991514 127.243216,23.2023405 C127.243216,23.8240703 127.530243,24.1154757 128.732838,24.7610432 L131.581703,26.2920162 C133.896892,27.5393676 134.583324,29.0075838 134.583324,30.8100162 C134.583324,33.1646108 133.029,35.6816919 128.513432,35.6816919" id="Fill-35" fill="#002F5F"></path>
                </g>
            </g>
        </g>
    </g>
</svg>